<svg xmlns="http://www.w3.org/2000/svg" x="0px" y="0px"
width="100" height="100"
viewBox="0 0 30 30">
    <path fill="#b6462f" d="M23.41,3.101c-0.252,0.092-2.258,1.405-4.188,3.788c-2.388,2.947-3.17,6.549-4.477,7.856s-4.909,2.09-7.856,4.477 c-2.383,1.93-3.696,3.936-3.788,4.188c-0.092,0.252-0.263,0.609,0.27,1.142c1.026,1.026,8.765,4.275,11.974,1.066 c3.693-3.693-0.914-7.912,0.724-9.55s5.857,2.969,9.55-0.724c3.209-3.209-0.04-10.948-1.066-11.974 C24.019,2.838,23.662,3.009,23.41,3.101z M14.292,24.516c-1.905,1.905-5.407,0.117-6.347-0.822c-0.539-0.539-1.71-2.068,0.206-3.639 c1.916-1.572,4.346-2.478,5.772-1.052C14.582,19.661,16.197,22.61,14.292,24.516z M24.516,14.292 c-1.905,1.905-4.855,0.29-5.514-0.369c-1.426-1.426-0.519-3.855,1.052-5.772c1.572-1.916,3.1-0.746,3.639-0.206 C24.633,8.884,26.421,12.387,24.516,14.292z"></path>
</svg>

